<?xml version="1.0" encoding="UTF-8" standalone="no"?>
<svg
   version="1.0"
   width="1068px"
   height="233px"
   viewBox="0 0 1068 233"
   preserveAspectRatio="xMidYMid meet"
   id="svg20"
   sodipodi:docname="logo-varfig-svg-multicolor.svg"
   inkscape:version="1.4 (e7c3feb1, 2024-10-09)"
   xmlns:inkscape="http://www.inkscape.org/namespaces/inkscape"
   xmlns:sodipodi="http://sodipodi.sourceforge.net/DTD/sodipodi-0.dtd"
   xmlns="http://www.w3.org/2000/svg"
   xmlns:svg="http://www.w3.org/2000/svg">
  <defs
     id="defs20" />
  <sodipodi:namedview
     id="namedview20"
     pagecolor="#ffffff"
     bordercolor="#000000"
     borderopacity="0.25"
     inkscape:showpageshadow="2"
     inkscape:pageopacity="0.0"
     inkscape:pagecheckerboard="0"
     inkscape:deskcolor="#d1d1d1"
     showgrid="false"
     inkscape:zoom="1.7003745"
     inkscape:cx="608.39537"
     inkscape:cy="98.801762"
     inkscape:window-width="1920"
     inkscape:window-height="1027"
     inkscape:window-x="0"
     inkscape:window-y="62"
     inkscape:window-maximized="1"
     inkscape:current-layer="g20" />
  <g
     fill="#06679f"
     id="g20">
    <path
       d="M920 185 l0 -3 9.5 0 9.5 0 0 3 0 3 -9.5 0 -9.5 0 0 -3z"
       id="path13"
       inkscape:label="e2"
       style="fill:#38b6ff;fill-opacity:1" />
    <path
       d="M914.9 200.7 c-3.3 -2.5 -3.9 -5.5 -3.9 -18.5 0 -10.9 0.3 -13.1 1.6 -13.6 0.9 -0.3 7.8 -0.6 15.5 -0.6 l13.9 0 0 3 0 3 -12.5 0 -12.6 0 0.3 10.8 0.3 10.7 12.3 0.3 12.2 0.3 0 2.9 0 3 -12.7 0 c-8.5 -0.1 -13.3 -0.5 -14.4 -1.3z"
       id="path11"
       inkscape:label="e1"
       style="fill:#38b6ff;fill-opacity:1" />
    <path
       d="M839 186.9 c0 -8.4 0.5 -15.9 1 -17 1 -1.7 2.2 -1.9 14 -1.9 7.1 0 14 0.4 15.3 0.9 3.2 1.2 4.8 6 4 11.7 -0.4 3.4 -1.4 5.2 -4 7.4 -1.8 1.7 -4.4 3 -5.6 3 -1.9 0 -1.6 0.4 1.8 3.3 2.2 1.7 5.1 4.2 6.5 5.4 l2.5 2.2 -4.7 0.1 c-4.2 0 -5.2 -0.5 -11.1 -5.5 -3.5 -3 -7.4 -5.5 -8.6 -5.5 -1.7 0 -2.1 -0.6 -2.1 -3 l0 -3 7.8 0 c9.3 0 11 -1 11.4 -6.5 l0.3 -4 -11.2 -0.3 -11.3 -0.3 0 14.1 0 14 -3 0 -3 0 0 -15.1z"
       id="path10"
       inkscape:label="r"
       style="fill:#38b6ff;fill-opacity:1" />
    <path
       d="M764.2 191.3 c0.5 -11.4 1.6 -14.9 6 -19 1.2 -1.2 3.6 -2.6 5.1 -3.2 3.9 -1.5 21 -1.4 22.5 0.1 0.8 0.8 1.2 6 1.2 17 l0 15.8 -3 0 c-2.8 0 -3 -0.2 -3 -4 l0 -4.1 -11.2 0.3 -11.3 0.3 -0.3 3.8 c-0.3 3.4 -0.6 3.7 -3.4 3.7 l-3.1 0 0.5 -10.7z m28.6 -10.5 l0.3 -6.8 -7.3 0 c-9.3 0 -13.2 2.1 -14.8 8 -0.6 2.2 -0.8 4.5 -0.5 5.1 0.4 0.6 4.9 0.9 11.3 0.7 l10.7 -0.3 0.3 -6.7z"
       id="path9"
       inkscape:label="a"
       style="fill:#38b6ff;fill-opacity:1" />
    <path
       d="M687.4 202.2 c-0.6 -0.4 -2.3 -7.2 -3.8 -15.2 -1.5 -8 -2.9 -15.5 -3.2 -16.7 -0.4 -2 0 -2.3 2.6 -2.3 3.3 0 3 -0.6 5.1 11.5 2 11.8 1.9 11.7 7.7 2.6 3.5 -5.5 5.8 -8.1 7.1 -8.1 1.3 0 3.6 2.6 7.2 8.3 l5.3 8.2 0.8 -4 c0.4 -2.2 1.4 -7.1 2.1 -11 1.2 -6.9 1.3 -7 4.6 -7.3 2.8 -0.3 3.2 -0.1 2.7 1.5 -0.5 1.9 -4 20.7 -5.1 28 -0.7 4.3 -2.8 6.1 -5.1 4.3 -0.7 -0.6 -3.7 -5.1 -6.6 -10 -2.9 -4.9 -5.7 -9 -6.1 -9 -0.4 0 -1.1 0.8 -1.4 1.8 -1.1 2.9 -11.2 18.2 -12 18.2 -0.5 0 -1.3 -0.4 -1.9 -0.8z"
       id="path4"
       inkscape:label="w"
       style="fill:#38b6ff;fill-opacity:1" />
    <path
       d="M624 188 l0 -14 -7.1 0 -7 0 0.3 -2.7 0.3 -2.8 16.8 -0.3 16.7 -0.2 0 3 0 3 -7 0 -7 0 0 14 0 14 -3 0 -3 0 0 -14z"
       id="path8"
       inkscape:label="t"
       style="fill:#38b6ff;fill-opacity:1" />
    <path
       d="M556 185 l0 -3 9.5 0 9.5 0 0 3 0 3 -9.5 0 -9.5 0 0 -3z"
       id="path12"
       inkscape:label="f2"
       style="fill:#38b6ff;fill-opacity:1" />
    <path
       d="M547.2 185.3 l0.3 -16.8 15.3 -0.3 15.2 -0.3 0 3.1 0 3 -12.5 0 -12.5 0 0 14 0 14 -3 0 -3 0 0.2 -16.7z"
       id="path7"
       inkscape:label="f1"
       style="fill:#38b6ff;fill-opacity:1" />
    <path
       d="M480.6 202 c-6.4 -2 -9.6 -7.6 -9.5 -16.7 0 -7.9 1.7 -12.3 5.8 -15 2.9 -2 4.7 -2.3 12 -2.3 14.5 0 19.1 4.1 19.1 17 0 7.4 -2 12.2 -6.2 15.3 -3.1 2.3 -16.1 3.3 -21.2 1.7z m16.7 -6.1 c3.3 -1.5 4.7 -4.9 4.7 -11.4 0 -4.2 -0.5 -6 -2.3 -8.1 -2.2 -2.5 -2.8 -2.6 -10.2 -2.5 -10.7 0.2 -12.5 1.8 -12.5 11.1 0 6.8 0.9 8.9 4.5 10.8 2.6 1.5 12.7 1.5 15.8 0.1z"
       id="path3"
       inkscape:label="o"
       style="fill:#38b6ff;fill-opacity:1" />
    <path
       d="M401 199 l0 -2.9 13.3 -0.3 c12.9 -0.3 13.2 -0.3 13.5 -2.6 0.6 -4.3 -1.3 -5.2 -11 -5.2 -10.7 0 -14.1 -1.4 -15.8 -6.5 -0.9 -2.7 -0.9 -4.3 0 -7 1.8 -5.4 4.9 -6.5 18.5 -6.5 l11.5 0 0 3 0 3 -11.5 0 c-11.3 0 -11.6 0.1 -12.7 2.5 -2 4.3 0.2 5.5 10.1 5.5 10.6 0 15.1 1.8 16.7 6.9 1.4 4.4 0.7 7.5 -2.3 10.6 -2.5 2.4 -2.9 2.5 -16.4 2.5 l-13.9 0 0 -3z"
       id="path6"
       inkscape:label="s"
       style="fill:#38b6ff;fill-opacity:1" />
    <path
       d="M284.9 202.6 c-0.2 -0.2 -0.3 -39.4 -0.1 -87 0.2 -85.7 0.2 -86.6 2.2 -86.6 2 0 2 0.8 2 87 0 83.7 -0.1 87 -1.8 87 -1 0 -2.1 -0.2 -2.3 -0.4z"
       id="path2"
       inkscape:label="Divider"
       style="fill:#38b6ff;fill-opacity:1" />
    <path
       d="M104.4 149.5 c-38.7 -61.8 -41.7 -66.4 -55.4 -88.2 -13.7 -21.8 -19 -30.5 -19 -31.5 0 -0.4 27.5 -0.8 61 -0.8 33.6 0 61 0.3 61 0.6 0 0.4 -7.8 13.1 -17.2 28.3 l-17.3 27.6 -0.5 -10.5 -0.5 -10.5 -11.7 -0.3 c-6.5 -0.1 -11.8 -0.1 -11.8 0.2 0 1.1 43.6 70 44.5 70.3 0.8 0.2 31.1 -47 52.5 -82 2.5 -4.1 6.9 -11 9.8 -15.5 l5.2 -8.2 20.6 0 20.6 0 -2.3 3.8 c-1.2 2 -3.9 6.4 -6 9.7 -2.1 3.3 -6.1 9.6 -8.8 14 -10.5 17.1 -14.7 23.8 -17.1 27.5 -1.4 2.2 -4.5 7.2 -6.9 11.2 -2.5 4 -7.2 11.6 -10.6 16.8 -3.4 5.2 -8.1 12.7 -10.4 16.5 -4.2 6.9 -7.2 11.7 -32.5 52 -7 11.3 -13.2 20.7 -13.6 21 -0.4 0.3 -15.6 -23.1 -33.6 -52z"
       id="path5"
       inkscape:label="ISOTIPO"
       style="fill:#38b6ff;fill-opacity:1" />
    <path
       d="m 911.1,132.4 c -10.3,-3.7 -14.6,-9.7 -16.2,-23 -1.5,-11.8 -0.6,-58.5 1.2,-63.7 1.9,-5.6 7.1,-11.1 13.1,-13.8 5.3,-2.4 5.5,-2.4 46.1,-2.7 44.4,-0.4 52.3,0.2 59.5,4.4 5.2,3 9.2,8.8 9.9,14.3 l 0.6,4.1 h -51.2 c -49.8,0 -51.2,0.1 -53.1,2 -1.9,1.9 -2,3.3 -2,27 0,26.1 0.5,29.4 4.4,30.4 1.1,0.3 18.3,0.6 38.2,0.6 28.4,0 36.4,-0.3 37.8,-1.3 1.2,-0.9 2,-3.1 2.4,-6.5 l 0.4,-5.1 -20,-0.3 c -13.7,-0.2 -20.5,-0.7 -21.3,-1.5 -0.6,-0.6 -1.4,-4.3 -1.7,-8.2 -0.4,-5.5 -0.1,-7.6 1.2,-9.6 L 962,77 h 30.9 c 25.7,0 31.1,0.2 32.1,1.4 0.8,1.1 1.1,6.6 0.8,19.8 -0.3,17.1 -0.5,18.6 -2.7,23.1 -2.9,5.6 -6.8,8.9 -13.4,11.1 -7,2.3 -91.9,2.3 -98.6,0 z"
       id="path19"
       style="display:inline;fill:#0f3852;fill-opacity:1"
       inkscape:label="G" />
    <path
       d="M853.7 132.2 c-1.5 -1.7 -1.7 -6.7 -1.7 -51 0 -47.5 0.1 -49.2 1.9 -50.2 2.8 -1.4 19.4 -1.3 20.9 0.2 0.9 0.9 1.2 13.5 1.2 50.3 0 57.7 1.2 52.5 -12.2 52.5 -7 0 -8.8 -0.3 -10.1 -1.8z"
       id="path18"
       inkscape:label="I"
       style="fill:#0f3852;fill-opacity:1" />
    <path
       d="M716.2 132.4 c-2.2 -1.5 -2.2 -1.6 -2.2 -32.5 l0 -30.9 57.8 0 c43.6 0 58.1 0.3 59 1.2 1.4 1.4 1.6 16.6 0.2 18.8 -0.8 1.3 -7.3 1.6 -45.1 2 l-44.1 0.5 -1.9 2.4 c-1.7 2.1 -1.9 4.1 -1.9 19.7 0 20.7 0.2 20.4 -12 20.4 -5.2 0 -8.2 -0.5 -9.8 -1.6z"
       id="path17"
       inkscape:label="F2"
       style="fill:#0f3852;fill-opacity:1" />
    <path
       d="M714 42.2 c0 -6.3 0.4 -10.2 1.2 -11 0.9 -0.9 15.2 -1.2 58.4 -1.2 47.9 0 57.3 0.2 58.3 1.4 1.8 2.1 1.9 16.9 0.2 18.9 -1.2 1.6 -6.6 1.7 -59.7 1.7 l-58.4 0 0 -9.8z"
       id="path20"
       inkscape:label="F1"
       style="fill:#0f3852;fill-opacity:1" />
    <path
       d="M633.5 109.5 l-25 -24.4 29.1 -0.1 c26.3 0 29.4 -0.2 31.3 -1.7 2.1 -1.7 2.2 -2.5 1.9 -15.3 -0.3 -13.2 -0.3 -13.5 -2.8 -14.7 -1.9 -1 -13.6 -1.3 -49.2 -1.3 l-46.8 0 0 -10 c0 -8.8 0.2 -10 1.9 -11 2.7 -1.4 97.7 -1.4 103.4 0.1 6.8 1.7 11.8 5.8 15.2 12.4 l3 5.9 0 19 c0 20.3 -0.5 22.9 -5.2 29.4 -3.1 4.2 -8.4 6.8 -16.7 8.2 -3.6 0.7 -6.6 1.5 -6.5 1.9 0.1 0.3 5.9 6 12.9 12.6 7.1 6.6 12.9 12.3 12.9 12.8 0.1 0.4 -7.7 0.7 -17.1 0.7 l-17.3 -0.1 -25 -24.4z"
       id="path16"
       inkscape:label="R"
       style="fill:#0f3852;fill-opacity:1" />
    <path
       d="M460.8 132.9 c-4.5 -2.5 -3.3 -4.8 25.7 -48.9 14.6 -22.3 27.3 -41.7 30 -45.9 4.9 -7.9 5.4 -8.1 16.3 -8.1 5.3 0 10.2 0.4 10.8 0.8 0.6 0.4 4 5.2 7.6 10.7 3.6 5.5 9 13.8 12 18.5 3 4.7 13.9 21.5 24.3 37.5 10.3 15.9 19 29.7 19.2 30.6 0.3 1 -0.5 2.7 -1.6 3.8 -1.8 1.8 -3.3 2.1 -11.7 2.1 -9.2 0 -9.7 -0.1 -11.9 -2.7 -2.3 -2.7 -24.5 -36.4 -43.1 -65.5 -2.7 -4.3 -5.2 -7.7 -5.6 -7.8 -0.7 0 -5.8 7.7 -25.8 38.7 -19.2 29.7 -22.9 35.2 -24.9 36.2 -2.5 1.4 -19 1.4 -21.3 0z"
       id="path15"
       inkscape:label="A"
       style="fill:#0f3852;fill-opacity:1" />
    <path
       d="M404.3 131.8 c-1.2 -1.3 -9.7 -14 -19 -28.3 -20.5 -31.4 -35.4 -54.2 -39.9 -61.1 -3.5 -5.3 -4.3 -9.1 -2.2 -11.2 0.8 -0.8 4.8 -1.2 11.5 -1.2 12 0 12 0 19.3 11.8 2.3 3.7 6.2 10 8.8 13.9 2.6 4 10.5 16.1 17.5 27 14.5 22.4 15.8 24.2 16.3 22.8 0.4 -1 2 -3.5 20.2 -31.5 5.2 -8 12.9 -19.8 17.1 -26.4 12.2 -19 10.5 -17.6 22.6 -17.6 11.4 0 14.2 1.2 13.1 5.6 -0.3 1.2 -6.1 10.7 -12.9 21.1 -23.8 36.6 -28.3 43.5 -38.5 59.1 -5.6 8.6 -11 16.3 -11.9 17 -1.1 0.7 -5.1 1.2 -10.8 1.2 -8.2 0 -9.4 -0.2 -11.2 -2.2z"
       id="path14"
       inkscape:label="V"
       style="fill:#0f3852;fill-opacity:1" />
  </g>
</svg>
